<svg width="21" height="27" viewBox="0 0 21 27" fill="none" xmlns="http://www.w3.org/2000/svg">
<path d="M17.5571 14.2686C17.5451 12.0554 18.4734 10.3875 20.3481 9.15758C19.2996 7.53504 17.7133 6.64265 15.6223 6.47066C13.6425 6.30192 11.4764 7.71677 10.6833 7.71677C9.84506 7.71677 7.92833 6.52907 6.42017 6.52907C3.30773 6.58099 0 9.2095 0 14.5574C0 16.1377 0.267382 17.77 0.802146 19.4509C1.51717 21.6641 4.09485 27.0866 6.78369 26.999C8.1897 26.9633 9.18412 25.9216 11.0137 25.9216C12.7893 25.9216 13.7086 26.999 15.2768 26.999C17.9897 26.9568 20.321 22.0275 21 19.8079C17.3618 17.955 17.5571 14.3821 17.5571 14.2686ZM14.3996 4.3711C15.9227 2.41757 15.7845 0.639278 15.7395 0C14.3936 0.0843717 12.8373 0.989745 11.9511 2.1028C10.9747 3.29699 10.4009 4.77349 10.524 6.43821C11.9781 6.55828 13.306 5.75026 14.3996 4.3711Z" fill="#DBD2D2"/>
</svg>
