<svg width="23" height="23" viewBox="0 0 23 23" fill="none" xmlns="http://www.w3.org/2000/svg">
<path d="M2.15625 2.67243V20.3267C2.15637 20.365 2.16779 20.4024 2.18909 20.4343C2.21039 20.4661 2.24061 20.491 2.27597 20.5057C2.31132 20.5204 2.35024 20.5244 2.38784 20.5171C2.42544 20.5098 2.46005 20.4915 2.48732 20.4646L11.6797 11.5L2.48732 2.53452C2.46005 2.50763 2.42544 2.48938 2.38784 2.48208C2.35024 2.47478 2.31132 2.47874 2.27597 2.49347C2.24061 2.5082 2.21039 2.53304 2.18909 2.56487C2.16779 2.59671 2.15637 2.63412 2.15625 2.67243Z" fill="#067188"/>
<path d="M15.5341 7.81629L4.00802 1.46614L4.00084 1.4621C3.80228 1.35428 3.61361 1.62292 3.77623 1.77925L12.8114 10.4186L15.5341 7.81629Z" fill="#067188"/>
<path d="M3.777 21.2206C3.61348 21.3769 3.80215 21.6456 4.00161 21.5377L4.00879 21.5337L15.534 15.1835L12.8112 12.5803L3.777 21.2206Z" fill="#A41E1E"/>
<path d="M20.1869 10.3769L16.9683 8.60425L13.9419 11.4999L16.9683 14.3942L20.1869 12.623C21.0625 12.1392 21.0625 10.8607 20.1869 10.3769Z" fill="#DED61C"/>
</svg>
