<svg width="25" height="24" viewBox="0 0 25 24" fill="none" xmlns="http://www.w3.org/2000/svg">
<path d="M24.1 5.00979L19.99 0.899787C19.4535 0.39593 18.7506 0.106825 18.015 0.0874649C17.2793 0.0681047 16.5621 0.319841 16 0.794787L2.49996 14.2948C2.01511 14.7837 1.71321 15.4246 1.64496 16.1098L0.999957 22.3648C0.97975 22.5845 1.00826 22.8059 1.08345 23.0134C1.15864 23.2208 1.27866 23.4091 1.43496 23.5648C1.57512 23.7038 1.74134 23.8138 1.9241 23.8884C2.10685 23.9631 2.30255 24.0009 2.49996 23.9998H2.63496L8.88996 23.4298C9.57515 23.3615 10.216 23.0596 10.705 22.5748L24.205 9.07479C24.7289 8.52124 25.0121 7.78255 24.9924 7.02059C24.9727 6.25863 24.6518 5.53555 24.1 5.00979ZM19 10.0198L14.98 5.99979L17.905 2.99979L22 7.09479L19 10.0198Z" fill="white"/>
</svg>
