<svg width="34" height="32" viewBox="0 0 34 32" fill="none" xmlns="http://www.w3.org/2000/svg">
<rect width="34" height="31.3684" rx="11" fill="#F0F1FE"/>
<path d="M7.47619 15.4956C7.47619 13.0207 7.47619 11.7832 8.1128 10.9157C8.3184 10.6355 8.56726 10.3892 8.85024 10.1856C9.72646 9.55532 10.9764 9.55532 13.4762 9.55532H20.5238C23.0236 9.55532 24.2735 9.55532 25.1498 10.1856C25.4327 10.3892 25.6816 10.6355 25.8872 10.9157C26.5238 11.7832 26.5238 13.0207 26.5238 15.4956V15.8728C26.5238 18.3477 26.5238 19.5852 25.8872 20.4527C25.6816 20.7329 25.4327 20.9793 25.1498 21.1828C24.2735 21.8131 23.0236 21.8131 20.5238 21.8131H13.4762C10.9764 21.8131 9.72646 21.8131 8.85024 21.1828C8.56726 20.9793 8.3184 20.7329 8.1128 20.4527C7.47619 19.5852 7.47619 18.3477 7.47619 15.8728V15.4956Z" fill="#07092C"/>
<path fill-rule="evenodd" clip-rule="evenodd" d="M13.4474 9.08387H20.5526C21.7781 9.08386 22.7368 9.08386 23.4969 9.1654C24.2719 9.24853 24.8968 9.42092 25.4297 9.80419C25.7531 10.0368 26.0375 10.3184 26.2724 10.6386C26.6596 11.1661 26.8337 11.7848 26.9177 12.5521C27 13.3047 27 14.2538 27 15.4671V15.9013C27 17.1146 27 18.0638 26.9177 18.8163C26.8337 19.5836 26.6596 20.2023 26.2724 20.7298C26.0375 21.05 25.7531 21.3316 25.4297 21.5642C24.8968 21.9475 24.2719 22.1199 23.4969 22.203C22.7368 22.2846 21.7781 22.2846 20.5526 22.2846H13.4474C12.2219 22.2846 11.2632 22.2846 10.5031 22.203C9.72807 22.1199 9.10316 21.9475 8.57034 21.5642C8.24693 21.3316 7.96252 21.05 7.72755 20.7298C7.34044 20.2023 7.16631 19.5836 7.08235 18.8163C6.99999 18.0638 7 17.1146 7 15.9013V15.4671C7 14.2538 6.99999 13.3047 7.08235 12.5521C7.16631 11.7848 7.34044 11.1661 7.72755 10.6386C7.96252 10.3184 8.24693 10.0368 8.57034 9.80419C9.10316 9.42092 9.72807 9.24853 10.5031 9.1654C11.2632 9.08386 12.2219 9.08386 13.4474 9.08387ZM10.6057 10.1028C9.91169 10.1773 9.47354 10.32 9.13014 10.567C8.88758 10.7415 8.67427 10.9527 8.49805 11.1928C8.24855 11.5328 8.10437 11.9666 8.02919 12.6537C7.95303 13.3495 7.95238 14.2477 7.95238 15.4956V15.8728C7.95238 17.1208 7.95303 18.0189 8.02919 18.7148C8.10437 19.4018 8.24855 19.8356 8.49805 20.1756C8.67427 20.4157 8.88758 20.6269 9.13014 20.8014C9.47354 21.0484 9.91169 21.1912 10.6057 21.2656C11.3085 21.341 12.2157 21.3416 13.4762 21.3416H20.5238C21.7843 21.3416 22.6915 21.341 23.3943 21.2656C24.0883 21.1912 24.5265 21.0484 24.8699 20.8014C25.1124 20.6269 25.3257 20.4157 25.502 20.1756C25.7515 19.8356 25.8956 19.4018 25.9708 18.7148C26.047 18.0189 26.0476 17.1208 26.0476 15.8728V15.4956C26.0476 14.2477 26.047 13.3495 25.9708 12.6537C25.8956 11.9666 25.7515 11.5328 25.502 11.1928C25.3257 10.9527 25.1124 10.7415 24.8699 10.567C24.5265 10.32 24.0883 10.1773 23.3943 10.1028C22.6915 10.0274 21.7843 10.0268 20.5238 10.0268H13.4762C12.2157 10.0268 11.3085 10.0274 10.6057 10.1028Z" fill="#07092C"/>
<path fill-rule="evenodd" clip-rule="evenodd" d="M21.2809 21.3464C21.5413 21.0886 21.9634 21.0886 22.2237 21.3464L24.1381 23.2417C24.3984 23.4994 24.3984 23.9173 24.1381 24.1751C23.8777 24.4329 23.4556 24.4329 23.1953 24.1751L21.2809 22.2798C21.0206 22.0221 21.0206 21.6041 21.2809 21.3464Z" fill="#07092C"/>
<path fill-rule="evenodd" clip-rule="evenodd" d="M19.3762 7.19332C19.6365 7.45108 19.6365 7.86899 19.3762 8.12675L17.4618 10.022C17.2015 10.2798 16.7794 10.2798 16.519 10.022C16.2587 9.76428 16.2587 9.34637 16.519 9.08861L18.4334 7.19332C18.6937 6.93556 19.1158 6.93556 19.3762 7.19332Z" fill="#07092C"/>
<path fill-rule="evenodd" clip-rule="evenodd" d="M9.86193 24.1751C9.60158 23.9173 9.60158 23.4994 9.86193 23.2417L11.7763 21.3464C12.0366 21.0886 12.4587 21.0886 12.7191 21.3464C12.9794 21.6041 12.9794 22.0221 12.7191 22.2798L10.8047 24.1751C10.5444 24.4329 10.1223 24.4329 9.86193 24.1751Z" fill="#07092C"/>
<path fill-rule="evenodd" clip-rule="evenodd" d="M17.481 10.022C17.2206 10.2798 16.7985 10.2798 16.5382 10.022L14.6238 8.12675C14.3635 7.86899 14.3635 7.45108 14.6238 7.19332C14.8842 6.93556 15.3063 6.93556 15.5666 7.19332L17.481 9.08861C17.7413 9.34637 17.7413 9.76428 17.481 10.022Z" fill="#07092C"/>
</svg>
