<svg width="50" height="50" viewBox="0 0 50 50" fill="none" xmlns="http://www.w3.org/2000/svg">
<rect opacity="0.2" width="50" height="50" rx="10" fill="#3575FF"/>
<path d="M14 34.9999V32.7776C14 31.5988 14.4683 30.4683 15.3018 29.6348C16.1353 28.8013 17.2658 28.3331 18.4445 28.3331H22.8891C24.0678 28.3331 25.1983 28.8013 26.0318 29.6348C26.8653 30.4683 27.3336 31.5988 27.3336 32.7776V34.9999M28.4449 15.1465C29.4009 15.3913 30.2483 15.9473 30.8534 16.7269C31.4585 17.5064 31.787 18.4653 31.787 19.4521C31.787 20.439 31.4585 21.3978 30.8534 22.1774C30.2483 22.957 29.4009 23.513 28.4449 23.7578M34 35.0014V32.7791C33.9944 31.7982 33.6643 30.8466 33.0614 30.0728C32.4584 29.299 31.6164 28.7465 30.6666 28.5012M25.1108 19.4445C25.1108 21.8992 23.1209 23.8891 20.6662 23.8891C18.2116 23.8891 16.2217 21.8992 16.2217 19.4445C16.2217 16.9899 18.2116 15 20.6662 15C23.1209 15 25.1108 16.9899 25.1108 19.4445Z" stroke="#3575FF" stroke-width="2" stroke-linecap="round" stroke-linejoin="round"/>
</svg>
