<svg width="35" height="35" viewBox="0 0 35 35" fill="none" xmlns="http://www.w3.org/2000/svg">
<rect width="35" height="34.5405" rx="12" fill="#F0F1FE"/>
<path fill-rule="evenodd" clip-rule="evenodd" d="M9.68327 11.4811C9 12.6326 9 14.1785 9 17.2703C9 20.3621 9 21.908 9.68327 23.0595C10.1309 23.8138 10.7747 24.4402 11.55 24.8757C12.7335 25.5405 14.3223 25.5405 17.5 25.5405C20.6777 25.5405 22.2665 25.5405 23.45 24.8757C24.2253 24.4402 24.8691 23.8138 25.3167 23.0595C26 21.908 26 20.3621 26 17.2703C26 14.1785 26 12.6326 25.3167 11.4811C24.8691 10.7267 24.2253 10.1003 23.45 9.6648C22.2665 9 20.6777 9 17.5 9C14.3223 9 12.7335 9 11.55 9.6648C10.7747 10.1003 10.1309 10.7267 9.68327 11.4811ZM18.0055 18.182L17.8307 18.2883C17.12 18.7204 16.6791 18.9862 16.3486 19.137C16.2919 19.1628 16.2457 19.1818 16.2088 19.1956C16.2013 19.1579 16.1933 19.1097 16.1858 19.0492C16.1421 18.6966 16.14 18.192 16.14 17.3766V17.164C16.14 16.3486 16.1421 15.844 16.1858 15.4914C16.1933 15.4309 16.2013 15.3827 16.2088 15.3449C16.2457 15.3588 16.2919 15.3777 16.3486 15.4036C16.6791 15.5544 17.12 15.8201 17.8306 16.2523L18.0055 16.3586C18.6478 16.7492 19.0359 16.9875 19.2884 17.1856C19.3313 17.2193 19.3644 17.2475 19.3897 17.2703C19.3644 17.2931 19.3313 17.3212 19.2884 17.3549C19.0359 17.553 18.6478 17.7914 18.0055 18.182ZM18.6362 15.3767C19.8677 16.1256 20.4834 16.5001 20.5933 17.0208C20.628 17.1854 20.628 17.3551 20.5933 17.5197C20.4834 18.0405 19.8677 18.4149 18.6362 19.1638L18.4613 19.2701C17.094 20.1016 16.4103 20.5174 15.8566 20.3548C15.6826 20.3037 15.5219 20.217 15.3852 20.1006C14.95 19.7299 14.95 18.9455 14.95 17.3766V17.164C14.95 15.5951 14.95 14.8106 15.3852 14.4399C15.5219 14.3235 15.6826 14.2368 15.8566 14.1858C16.4103 14.0231 17.094 14.4389 18.4613 15.2704L18.6362 15.3767Z" fill="#07092C"/>
</svg>
